<svg width="91" height="48" viewBox="0 0 91 48" fill="none" xmlns="http://www.w3.org/2000/svg">
<mask id="mask0_109_12209" style="mask-type:luminance" maskUnits="userSpaceOnUse" x="0" y="0" width="91" height="48">
<path d="M91 0H0V48H91V0Z" fill="white"/>
</mask>
<g mask="url(#mask0_109_12209)">
<mask id="mask1_109_12209" style="mask-type:luminance" maskUnits="userSpaceOnUse" x="-50" y="-21" width="187" height="185">
<path d="M-49.625 -20.1064H136.191V163.888H-49.625V-20.1064Z" fill="white"/>
</mask>
<g mask="url(#mask1_109_12209)">
<path d="M10.807 21.9647C10.807 19.8311 9.25858 18.0979 7.37294 18.0979C5.45416 18.0979 3.93892 19.8311 3.93892 21.9647C3.93892 24.1321 5.45416 25.8653 7.37294 25.8653C9.25858 25.8653 10.807 24.1321 10.807 21.9647ZM14.7124 29.7659C14.7124 31.6656 14.073 33.4659 12.8946 34.8996C11.5142 36.5664 9.46052 37.5333 7.33942 37.5333H6.86809C4.64605 37.3666 2.55885 36.0997 1.2791 34.1326C1.07715 33.7991 0.976182 33.4659 0.976182 33.0993C0.976182 32.4661 1.31297 31.8327 1.88526 31.4663C2.22205 31.2328 2.59207 31.1328 2.96273 31.1328C3.60245 31.1328 4.20828 31.4663 4.57862 32.033C5.18446 32.9661 6.12742 33.5659 7.13748 33.6327H7.33942C8.28207 33.6327 9.19113 33.1993 9.86473 32.4326C10.4706 31.6995 10.807 30.7325 10.807 29.7659V28.8658C9.76343 29.4325 8.61884 29.7659 7.37294 29.7659C3.29953 29.7659 0 26.2655 0 21.9647C0 17.6977 3.29953 14.1973 7.37294 14.1973C8.68595 14.1973 9.93178 14.5637 11.0428 15.2303C11.3458 14.6307 12.0194 14.1973 12.76 14.1973C13.8372 14.1973 14.7124 15.0639 14.7124 16.1305V21.9647V29.7659Z" fill="white"/>
<path d="M24.3755 16.1638C24.3755 17.23 23.5003 18.097 22.4232 18.097C21.7832 18.097 20.9415 18.1973 20.605 18.6968C20.504 18.8639 20.4701 19.0636 20.4701 19.0636V27.8318C20.4701 28.8984 19.5949 29.7653 18.4836 29.7653C17.4065 29.7653 16.5312 28.8984 16.5312 27.8318V16.1638C16.5312 15.0633 17.4065 14.1963 18.4836 14.1963C18.9888 14.1963 19.4266 14.3634 19.7634 14.663C20.504 14.3634 21.3792 14.1963 22.4232 14.1963C23.5003 14.1963 24.3755 15.0633 24.3755 16.1638Z" fill="white"/>
<path d="M34.6412 23.6979C34.4057 23.664 34.035 23.6311 33.4967 23.6311C33.0589 23.6311 32.5875 23.6311 31.7791 23.664C30.2307 23.7311 29.3555 24.1314 29.1196 24.431C29.0861 24.4978 29.0187 24.5642 29.0187 24.698C29.0187 24.7312 29.0522 24.798 29.0522 24.8645C29.1532 25.2647 29.288 25.8314 30.702 25.8314C31.3081 25.8314 31.813 25.7314 31.9814 25.6982C32.0488 25.6644 32.0823 25.6644 32.1159 25.6644C33.3618 25.4312 34.1363 24.698 34.4728 24.0975L34.6412 23.6979ZM38.8495 27.8317C38.8495 28.8651 37.9743 29.7652 36.8971 29.7652C36.1226 29.7652 35.449 29.3318 35.1461 28.698C34.4392 29.0654 33.665 29.3318 32.8231 29.4982C32.5537 29.5321 31.7459 29.7314 30.702 29.7314C27.8402 29.7314 25.854 28.2984 25.2478 25.7646C25.1469 25.3979 25.1133 25.0316 25.1133 24.6642C25.1133 23.7311 25.4162 22.831 25.9885 22.0972C26.7631 21.0977 28.379 19.8972 32.015 19.764C32.5198 19.764 32.9915 19.7302 33.4967 19.7302C33.8667 19.7302 34.3044 19.7302 34.7757 19.7972C34.6748 19.2638 34.4392 18.6968 34.1025 18.4968C33.5973 18.2304 32.9915 18.0969 32.4192 18.0969C31.1398 18.0969 29.8603 18.6639 29.1532 19.2306C28.7829 19.5308 28.3454 19.664 27.9077 19.664C27.3354 19.664 26.7966 19.4306 26.3924 18.9642C26.0898 18.5968 25.955 18.1634 25.955 17.7305C25.955 17.1638 26.1908 16.5965 26.6621 16.2301C28.0086 15.1296 29.6584 14.4298 31.4762 14.2634C31.7791 14.2295 32.0488 14.2295 32.3517 14.2295C33.6986 14.2295 34.9777 14.5298 36.0213 15.0964C38.715 16.5965 38.8156 20.0975 38.8156 20.4639V25.6982L38.8495 27.8317Z" fill="white"/>
<path d="M54.7067 16.1638C54.7067 16.4634 54.639 16.7304 54.5045 16.9968L48.9155 28.6649C48.6126 29.3318 47.9054 29.7653 47.1647 29.7653C46.3908 29.7653 45.7172 29.3318 45.3808 28.6649L39.7918 16.9968C39.6572 16.7304 39.5898 16.4634 39.5898 16.1638C39.5898 15.43 39.9937 14.7301 40.7005 14.3966C40.9699 14.2634 41.2728 14.1963 41.5425 14.1963C42.2832 14.1963 42.9903 14.6298 43.3271 15.33L47.1647 23.2977L50.9695 15.33C51.3062 14.6298 52.0131 14.1963 52.7541 14.1963C53.0231 14.1963 53.3264 14.2634 53.5957 14.3966C54.3022 14.7301 54.7067 15.43 54.7067 16.1638Z" fill="white"/>
<path d="M56.5273 27.8327V16.1647C56.5273 15.0975 57.4029 14.1973 58.4797 14.1973C59.5575 14.1973 60.4666 15.0975 60.4666 16.1647V21.9979V27.8327C60.4666 28.899 59.5575 29.7663 58.4797 29.7663C57.4029 29.7663 56.5273 28.899 56.5273 27.8327Z" fill="white"/>
<path d="M74.0649 16.1645C74.0649 17.2308 73.189 18.0977 72.1124 18.0977H70.1258V27.8325C70.1258 28.8991 69.2499 29.7661 68.1733 29.7661C67.096 29.7661 66.2208 28.8991 66.2208 27.8325V18.0977H64.2336C63.1571 18.0977 62.2812 17.2308 62.2812 16.1645C62.2812 15.0641 63.1571 14.1971 64.2336 14.1971H66.2208V8.36326C66.2208 7.29666 67.096 6.42969 68.1733 6.42969C69.2499 6.42969 70.1258 7.29666 70.1258 8.36326V14.1971H72.1124C73.189 14.1971 74.0649 15.0641 74.0649 16.1645Z" fill="white"/>
<path d="M85.209 28.6658L84.9734 29.0325L81.6064 36.4003C81.2692 37.1334 80.5626 37.5337 79.8226 37.5337C79.5523 37.5337 79.2498 37.4998 78.9802 37.3666C78.2736 37.067 77.8694 36.3332 77.8694 35.5998C77.8694 35.3331 77.9035 35.0667 78.038 34.7996L81.2364 27.7659L76.0849 16.9977C75.9497 16.7313 75.8828 16.4643 75.8828 16.1647C75.8828 15.4306 76.287 14.7307 76.9942 14.3975C77.2632 14.2643 77.5663 14.1973 77.8353 14.1973C78.576 14.1973 79.2833 14.6307 79.6205 15.3306L83.4579 23.2983L87.2625 15.3306C87.5991 14.6307 88.3063 14.1973 89.047 14.1973C89.316 14.1973 89.6191 14.2643 89.8888 14.3975C90.5954 14.7307 90.9995 15.4306 90.9995 16.1647C90.9995 16.4643 90.9326 16.7313 90.7974 16.9977L85.209 28.6658Z" fill="white"/>
<path d="M56.5254 16.8289C56.5254 15.2634 56.4228 15.0883 56.7135 14.6136C57.7945 13.3017 58.2174 14.2804 58.2271 12.0949C58.239 9.53842 57.6538 7.73582 56.937 5.97543C56.5018 4.90628 57.2215 3.69434 58.4945 3.69434C59.5133 3.69434 60.4272 4.9708 60.0324 5.93774C59.3545 7.72529 58.84 9.51002 58.8668 12.0751C58.889 14.2562 59.2716 13.286 60.2384 14.6136C60.5733 15.0736 60.4646 15.1676 60.4646 16.9369" fill="white"/>
<path d="M58.4524 2.00847C57.8669 2.01613 57.4356 1.59256 57.4375 1.01182C57.4391 0.479326 57.8698 0.0238101 58.3924 0.000810726C58.9224 -0.0225081 59.4511 0.460798 59.4718 0.987231C59.4931 1.53314 59.026 2.00112 58.4524 2.00847Z" fill="white"/>
<path d="M39.6562 46.0323C39.6562 45.7326 39.7237 45.4656 39.8582 45.1992L45.4472 33.5308C45.7504 32.8641 46.4572 32.4307 47.1979 32.4307C47.9722 32.4307 48.6454 32.8641 48.9822 33.5308L54.5712 45.1992C54.7057 45.4656 54.7728 45.7326 54.7728 46.0323C54.7728 46.766 54.3689 47.4659 53.6622 47.7994C53.3928 47.9326 53.0899 47.9997 52.8205 47.9997C52.0798 47.9997 51.3724 47.5659 51.0359 46.866L47.1979 38.8983L43.3932 46.866C43.0568 47.5659 42.3499 47.9997 41.6089 47.9997C41.3395 47.9997 41.0363 47.9326 40.7673 47.7994C40.0605 47.4659 39.6562 46.766 39.6562 46.0323Z" fill="#FD520C"/>
<path d="M56.4844 46.0661V34.3977C56.4844 33.3309 57.3599 32.4307 58.4371 32.4307C59.5149 32.4307 60.4237 33.3309 60.4237 34.3977V46.0661C60.4237 47.1324 59.5149 47.9997 58.4371 47.9997C57.3599 47.9997 56.4844 47.1324 56.4844 46.0661Z" fill="#FD520C"/>
</g>
</g>
</svg>
